<svg width="21" height="20" viewBox="0 0 21 20" fill="none" xmlns="http://www.w3.org/2000/svg">
<path d="M17.0399 8.33073C17.0399 13.3307 10.3732 18.3307 10.3732 18.3307C10.3732 18.3307 3.70654 13.3307 3.70654 8.33073C3.70654 6.56262 4.40892 4.86693 5.65916 3.61668C6.90941 2.36644 8.6051 1.66406 10.3732 1.66406C12.1413 1.66406 13.837 2.36644 15.0873 3.61668C16.3375 4.86693 17.0399 6.56262 17.0399 8.33073Z" stroke="#EF4444" stroke-width="1.5" stroke-linecap="round" stroke-linejoin="round"/>
<path d="M10.3732 10.8307C11.7539 10.8307 12.8732 9.71144 12.8732 8.33073C12.8732 6.95002 11.7539 5.83073 10.3732 5.83073C8.9925 5.83073 7.87321 6.95002 7.87321 8.33073C7.87321 9.71144 8.9925 10.8307 10.3732 10.8307Z" stroke="#EF4444" stroke-width="1.5" stroke-linecap="round" stroke-linejoin="round"/>
</svg>
